# xmcd
#
# Track frame offsets: 
#        150
#        14007
#        25885
#        36953
#        50278
#        61942
#        75032
#        88201
#        98894
#        111137
#        158144
#        169944
#        183546
#        196539
#        208625
#        222012
#        236630
#        250420
#        262692
#        273873
#        288440
#        301666
#        315188
#        327877
#        340400
#
# Disc length: 4708 seconds
#
# Revision: 1
# Processed by: cddbd v1.5.2PL0 Copyright (c) Steve Scherf et al.
# Submitted via: ExactAudioCopy v0.99pb4
#
DISCID=4b126219
DTITLE=Les Paul And Mary Ford - Dream Dust
DYEAR=2007
DGENRE=Country
TTITLE0=New Dupree Blues
TTITLE1=I Just Want Your Stingaree
TTITLE2=Black Rider
TTITLE3=I'll Keep Sittin' On It (If I Can't Sell It)
TTITLE4=Trouble In Mind
TTITLE5=Just Because
TTITLE6=Deep Elem Blues
TTITLE7=Cindy
TTITLE8=The Filipino Hombre
TTITLE9=Blues
TTITLE10=Blue Skies
TTITLE11=Begin The Beguine
TTITLE12=Dream Dust
TTITLE13=Dark Eyes
TTITLE14=It's Been A Long, Long Time
TTITLE15=Whose Dream Are You?
TTITLE16=Hawaiian Paradise
TTITLE17=My Isle Of Golden Dreams
TTITLE18=Baby, What You Do For Me
TTITLE19=Everybody Knew But Me
TTITLE20=Song Of The Islands
TTITLE21=Sweet Leilani
TTITLE22=King's Serenade
TTITLE23=To You, Sweetheart, Aloha
TTITLE24=Aloha Oe
EXTD=
EXTT0=
EXTT1=
EXTT2=
EXTT3=
EXTT4=
EXTT5=
EXTT6=
EXTT7=
EXTT8=
EXTT9=
EXTT10=
EXTT11=
EXTT12=
EXTT13=
EXTT14=
EXTT15=
EXTT16=
EXTT17=
EXTT18=
EXTT19=
EXTT20=
EXTT21=
EXTT22=
EXTT23=
EXTT24=
PLAYORDER=
